<svg id="Layer_1" data-name="Layer 1" xmlns="http://www.w3.org/2000/svg" width="68.45mm" height="32.12mm" viewBox="0 0 194.03 91.04"><defs><style>.cls-1{fill:#86bec6;}.cls-2{fill:#fff;}</style></defs><title>kontakt</title><rect class="cls-1" width="194.03" height="91.04" rx="29.86"/><path class="cls-2" d="M50,29.59c-.57,1.4-1.38,3.47-2.45,6.2q-3.49,9-5.7,13.45,1.45-1.8,4.5-5.1v-.72c0-.32,0-.73,0-1.23a1.53,1.53,0,0,1,.5-.82c.23-.19.43,0,.6.52a3.86,3.86,0,0,0,.1.75l0-.15q1.24-1.4,8.3-7.3t8.4-6.52A5.63,5.63,0,0,1,66.63,28a1.56,1.56,0,0,1,1.27.43,1.34,1.34,0,0,1,.35.85,1.08,1.08,0,0,1-.42.8,4.86,4.86,0,0,1-1,.67q-.63.3-3.9,2.15c-2.19,1.24-4.18,2.45-6,3.65a54.39,54.39,0,0,0-9,7.15,40.93,40.93,0,0,0,2.3,6.55,28.38,28.38,0,0,0,3.63,5.43c1.65,2,3.15,3,4.52,3a1.42,1.42,0,0,0,1.2-.45,1.46,1.46,0,0,0,.25-1.15,6.33,6.33,0,0,0-.9-2.27c-.4-.59-.44-.88-.12-.88a1.27,1.27,0,0,1,.9.43,4.28,4.28,0,0,1,.8,1.25,3.52,3.52,0,0,1,.37,1.42,2.57,2.57,0,0,1-1.35,2.2,4.82,4.82,0,0,1-2.5.8,6.89,6.89,0,0,1-4.1-1.32,10.58,10.58,0,0,1-3.1-3.63,33,33,0,0,1-3.25-9.7Q41,52,38.85,54.89q-5.15,8.36-9.85,9.8a7.58,7.58,0,0,1-2.35.45q-3.7,0-4.6-3.15a1.86,1.86,0,0,1-.05-.42,2.51,2.51,0,0,1,.08-.55c.05-.22.15-.3.32-.23s.33.38.5,1a2.6,2.6,0,0,0,1.9,1.85,11.29,11.29,0,0,0,1.93.2,4.59,4.59,0,0,0,1.42-.2q5.15-1.65,10-10.5a101,101,0,0,0,7.2-18.5,11.22,11.22,0,0,1-6.5,2.75.66.66,0,0,1-.5-.17.3.3,0,0,1,0-.4.71.71,0,0,1,.5-.28,8.14,8.14,0,0,0,4.48-2.22,13.07,13.07,0,0,0,3.47-4.68c.1-.43.68-.65,1.73-.65S50.07,29.16,50,29.59Z"/><path class="cls-2" d="M73.6,52.34a7.22,7.22,0,0,0,.9-2.85,4.41,4.41,0,0,0-.23-1.57.83.83,0,0,1,.21-1,1.24,1.24,0,0,1,1.07-.3c.67.17,1,.92,1,2.25S75.77,52,74.2,54.14a1.24,1.24,0,0,0,1.4,1.35c.9,0,2.27-1,4.1-2.9.87-1,1.41-1.65,1.63-2s.4-.41.57-.32.25.16.25.22c0,.34-.6,1.2-1.8,2.6-1.9,2.34-3.58,3.5-5,3.5a2.09,2.09,0,0,1-2-1.25q-1,1.05-2,2A6.57,6.57,0,0,1,67,59a3.77,3.77,0,0,1-2.25-.65A4,4,0,0,1,63,54.59a11,11,0,0,1,2-6,14.68,14.68,0,0,1,2.7-3.15,7.26,7.26,0,0,1,4.65-2.15,3.6,3.6,0,0,1,1,.15,1.91,1.91,0,0,1,1.5,1.9c0,.77-.2,1.15-.6,1.15-.17-.06-.25-.31-.25-.75,0-.6-.33-.9-1-.9q-1.75,0-4.5,3.2a13.56,13.56,0,0,0-3.3,6.45,6.66,6.66,0,0,0-.1,1.23,3.5,3.5,0,0,0,.45,1.55,1.72,1.72,0,0,0,1.68.87A4.52,4.52,0,0,0,69.9,57a11.5,11.5,0,0,0,2.6-2.8l-.15-.3a1.43,1.43,0,0,1,.2-1.3A.91.91,0,0,1,73.6,52.34Z"/><path class="cls-2" d="M94.75,43.64c.77,0,1.15.41,1.15,1.23a7.85,7.85,0,0,1-1.15,3.37c-.77,1.44-1.33,2.6-1.7,3.5a10.43,10.43,0,0,0-1,3.68,2.88,2.88,0,0,0,.4,1.82c.5.54,1.18.56,2,.08a23.06,23.06,0,0,0,3.62-2.8,24,24,0,0,0,3.73-4.08.37.37,0,0,1,.48-.12c.18.08.27.16.27.25a.48.48,0,0,1-.1.27,19.48,19.48,0,0,1-2.7,3.45,24.83,24.83,0,0,1-3.75,3.38,6.12,6.12,0,0,1-3.55,1.27,3.41,3.41,0,0,1-2.4-.77,2.52,2.52,0,0,1-.7-1.83,11.29,11.29,0,0,1,.2-2.12,12.47,12.47,0,0,1,.75-2.38A34.14,34.14,0,0,1,92,48.49a4.61,4.61,0,0,0,.68-1.57c0-.25-.13-.38-.4-.38-.53,0-1.55.65-3,2A46.67,46.67,0,0,0,84.63,54a39.81,39.81,0,0,1-3.43,4.27,7.89,7.89,0,0,1-2.25.9q-.45,0-.45-.15a1.23,1.23,0,0,1,.1-.42l1-2.73q.89-2.45,1.9-5.37c.69-1.95,1.1-3.13,1.25-3.53a5.22,5.22,0,0,0,.3-1,4.58,4.58,0,0,1,.18-.73,2.7,2.7,0,0,1,.37-.67.93.93,0,0,1,.73-.4,4.64,4.64,0,0,1,1.15.1c.47.08.7.29.7.62a5,5,0,0,1-.55,1.53q-.55,1.17-3.15,8.07c1.2-1.46,2.72-3.16,4.55-5.07A47,47,0,0,1,91.65,45,5.92,5.92,0,0,1,94.75,43.64Z"/><path class="cls-2" d="M109.25,43.84c2.57-.23,4.12-.35,4.67-.35s.83.09.83.25-.39.41-1.18.63a50.85,50.85,0,0,1-5.72.82l-.6,1.05a7.82,7.82,0,0,0-.8,1.45q-2.85,5.7-3,7.25c0,.3,0,.69,0,1.15a1.65,1.65,0,0,0,.4,1.15c.47.54,1.13.57,2,.1a20.67,20.67,0,0,0,3.62-2.8,26.85,26.85,0,0,0,3.78-4.1.37.37,0,0,1,.5-.1c.5.24-.37,1.55-2.6,3.95s-3.92,3.72-5.35,4.25a6.4,6.4,0,0,1-2.1.45,2.57,2.57,0,0,1-2.65-1.9,3,3,0,0,1-.1-.85,14.68,14.68,0,0,1,1.6-5.3,16.38,16.38,0,0,1-2,2.5c-.3.34-.53.34-.7,0a.65.65,0,0,1,0-.27.77.77,0,0,1,.2-.43c1.63-2,2.92-3.75,3.85-5.15,0,0,.37-.73,1.1-2.1a5,5,0,0,1-1,.1.93.93,0,0,1-.77-.32.72.72,0,0,1-.05-.78c.23-.53,1.12-.83,2.65-.9a.21.21,0,0,1,.2-.1l2.5-4.65c.13-.26.28-.54.45-.82l.37-.65.28-.48a2.16,2.16,0,0,1,.25-.35l.2-.2q.19-.3,1.17-.3a1.47,1.47,0,0,1,1.33.55,1.18,1.18,0,0,1,.15.68,2.13,2.13,0,0,1-.35,1,2.33,2.33,0,0,1-.75.82,1.44,1.44,0,0,0-.55.55l-2.4,4.2Z"/><path class="cls-2" d="M115.05,58.39a3.92,3.92,0,0,1-1.73-.47,4.6,4.6,0,0,1-1.57-1.35,3.13,3.13,0,0,1-.65-1.88,4.21,4.21,0,0,1,.45-1.9,13.07,13.07,0,0,1,3.22-4.07,29.52,29.52,0,0,1,4.63-3.38,16.47,16.47,0,0,1,3.8-1.75,11.34,11.34,0,0,1,2.72-.35,3.82,3.82,0,0,1,2.28.68,1.84,1.84,0,0,1,1,1.42.54.54,0,0,1-.05.3s-.12,0-.25,0a2.74,2.74,0,0,0-2.48-1,9.46,9.46,0,0,0-4.25,1.23,22,22,0,0,0-4.47,3.07,19.55,19.55,0,0,0-3.08,3.73,6.86,6.86,0,0,0-1.32,3c0,1.24.35,1.85,1,1.85s1.77-.56,3.2-1.7a61.41,61.41,0,0,0,4.85-4.4q4.61-4.95,5-4.95a4,4,0,0,1,1.45.35c.57.24.75.52.55.85a15.93,15.93,0,0,0-3,7.25c0,.3,0,.69,0,1.15a1.65,1.65,0,0,0,.4,1.15c.5.54,1.18.57,2,.1a20.67,20.67,0,0,0,3.62-2.8,24.47,24.47,0,0,0,3.73-4.1.33.33,0,0,1,.45-.12c.17.08.25.16.25.22,0,.5-.79,1.59-2.38,3.28a29.52,29.52,0,0,1-3.62,3.42A7.47,7.47,0,0,1,126.4,59a2.5,2.5,0,0,1-2.55-1.9,5.58,5.58,0,0,1-.15-1.35,13.47,13.47,0,0,1,1-4.75,21.22,21.22,0,0,0-1.85,2A29.1,29.1,0,0,1,119,56.64,6.52,6.52,0,0,1,115.05,58.39Z"/><path class="cls-2" d="M137.7,58.24a7.65,7.65,0,0,1-2.3.9c-.33,0-.5,0-.5-.15a.77.77,0,0,1,.07-.32c.05-.12.29-.75.7-1.88s1-2.56,1.58-4.3,1.18-3.18,1.65-4.35a35.66,35.66,0,0,0-2.7,3.45.53.53,0,0,1-.68.2c-.28-.1-.19-.45.28-1q1.65-2,4.15-5.75c-.5-.26-.75-.52-.75-.77a1.31,1.31,0,0,1,.1-.58c.17-.4.47-.48.9-.25a1.46,1.46,0,0,0,.4.1,44.65,44.65,0,0,1,5.5-10.35,12.9,12.9,0,0,1,3.75-3.72,7.1,7.1,0,0,1,3.65-1.18,4.82,4.82,0,0,1,2.3.58,2,2,0,0,1,1.1,1.87q0,2.5-4.3,7.25a34.4,34.4,0,0,1-5.15,4.5,27.44,27.44,0,0,1-5,3,83,83,0,0,0-3.45,9l3.25-4.25a9.41,9.41,0,0,1,0-.95c0-1,.22-1.61.65-1.85q.34-.15.45.6l.2.7c2.57-3,4.42-4.76,5.55-5.3a3.39,3.39,0,0,1,1.45-.4,2,2,0,0,1,1.15.35,1,1,0,0,1,.5.75c0,.47-.38.89-1.15,1.25-3.67,1.77-6.08,3.27-7.25,4.5a43.14,43.14,0,0,0,2.35,6.6,27.57,27.57,0,0,0,3.62,5.4q2.47,3,4.53,3c1.13,0,1.6-.5,1.4-1.5a5.72,5.72,0,0,0-.83-2.32c-.41-.65-.45-1-.12-1a1.83,1.83,0,0,1,.95.45,5.53,5.53,0,0,1,.7,1.23,3.62,3.62,0,0,1,.4,1.47,2.57,2.57,0,0,1-1.35,2.2,4.82,4.82,0,0,1-2.5.8,6.47,6.47,0,0,1-4.6-2.32,19.77,19.77,0,0,1-3.75-5.63,27.75,27.75,0,0,1-2.1-6.75c-.6.84-1.27,1.84-2,3A23.89,23.89,0,0,1,137.7,58.24Zm16.35-24.7a7.83,7.83,0,0,0,1.35-3.15q0-.9-.75-.9a3.43,3.43,0,0,0-1.9.9,25.67,25.67,0,0,0-5.4,5.58A49.41,49.41,0,0,0,143,43.74a25.3,25.3,0,0,0,8.45-6.5A26.8,26.8,0,0,0,154.05,33.54Z"/><path class="cls-2" d="M160.6,43.84c2.57-.23,4.12-.35,4.67-.35s.83.09.83.25-.39.41-1.18.63a50.85,50.85,0,0,1-5.72.82l-.6,1.05a7.82,7.82,0,0,0-.8,1.45q-2.85,5.7-3,7.25c0,.3-.05.69-.05,1.15a1.65,1.65,0,0,0,.4,1.15c.47.54,1.13.57,2,.1a20.67,20.67,0,0,0,3.62-2.8,26.85,26.85,0,0,0,3.78-4.1.37.37,0,0,1,.5-.1c.5.24-.37,1.55-2.6,3.95s-3.92,3.72-5.35,4.25A6.45,6.45,0,0,1,155,59a2.57,2.57,0,0,1-2.65-1.9,3,3,0,0,1-.1-.85,14.68,14.68,0,0,1,1.6-5.3,16.38,16.38,0,0,1-1.95,2.5c-.3.34-.53.34-.7,0a.65.65,0,0,1,0-.27.71.71,0,0,1,.2-.43c1.63-2,2.92-3.75,3.85-5.15,0,0,.36-.73,1.1-2.1a5.07,5.07,0,0,1-1,.1.93.93,0,0,1-.77-.32.7.7,0,0,1-.05-.78c.23-.53,1.11-.83,2.65-.9a.21.21,0,0,1,.2-.1l2.5-4.65c.13-.26.28-.54.45-.82l.37-.65.28-.48a2.16,2.16,0,0,1,.25-.35l.2-.2q.19-.3,1.17-.3a1.47,1.47,0,0,1,1.33.55,1.18,1.18,0,0,1,.15.68,2.13,2.13,0,0,1-.35,1,2.33,2.33,0,0,1-.75.82,1.44,1.44,0,0,0-.55.55l-2.4,4.2Z"/></svg>
