<svg id="Layer_1" data-name="Layer 1" xmlns="http://www.w3.org/2000/svg" width="184.39mm" height="56.4mm" viewBox="0 0 522.69 159.87"><defs><style>.cls-1{fill:#f1c3db;}.cls-1,.cls-2{stroke:#fff;}.cls-1,.cls-2,.cls-6{stroke-miterlimit:10;}.cls-2{fill:none;}.cls-3{fill:#ea89b9;}.cls-4,.cls-6{fill:#fff;}.cls-5{fill:#f7ec36;}.cls-6{stroke:#f7ec36;stroke-width:0.25px;}</style></defs><title>logo</title><polygon class="cls-1" points="353.75 43.96 395.98 115.91 480.45 115.91 522.69 43.96 353.75 43.96"/><polygon class="cls-1" points="0 43.96 42.24 115.91 126.71 115.91 168.94 43.96 0 43.96"/><line class="cls-2" x1="13.61" y1="66.95" x2="114.79" y2="66.95"/><line class="cls-2" x1="28.57" y1="91.89" x2="118.1" y2="92.52"/><line class="cls-2" x1="407.44" y1="66.95" x2="509.31" y2="66.95"/><line class="cls-2" x1="404.76" y1="91.89" x2="494.3" y2="92.52"/><path class="cls-3" d="M404.16,128.33c-2.08,12.3-14,23-26.41,23.86l-93.26,6.18a411.65,411.65,0,0,1-45.26,0l-90.76-6.12c-12.44-.84-24.56-11.54-26.93-23.79L103,32.45c-2.36-12.25,5.89-22.9,18.33-23.68L239.23,1.41a440.82,440.82,0,0,1,45.26,0l117,7.34a20,20,0,0,1,18.85,23.78Z"/><path class="cls-2" d="M404.16,128.33c-2.08,12.3-14,23-26.41,23.86l-93.26,6.18a411.65,411.65,0,0,1-45.26,0l-90.76-6.12c-12.44-.84-24.56-11.54-26.93-23.79L103,32.45c-2.36-12.25,5.89-22.9,18.33-23.68L239.23,1.41a440.82,440.82,0,0,1,45.26,0l117,7.34a20,20,0,0,1,18.85,23.78Z"/><path class="cls-3" d="M396.09,120.9c-2,12.31-13.85,23.1-26.29,24l-85.32,6a385.77,385.77,0,0,1-45.24,0l-82.39-5.92c-12.44-.9-24.57-11.65-26.95-23.89L114.13,39.86c-2.37-12.25,5.86-22.94,18.31-23.78L239.23,8.93a409.19,409.19,0,0,1,45.26,0L390.4,16.07a20.27,20.27,0,0,1,19,23.91Z"/><path class="cls-2" d="M396.09,120.9c-2,12.31-13.85,23.1-26.29,24l-85.32,6a385.77,385.77,0,0,1-45.24,0l-82.39-5.92c-12.44-.9-24.57-11.65-26.95-23.89L114.13,39.86c-2.37-12.25,5.86-22.94,18.31-23.78L239.23,8.93a409.19,409.19,0,0,1,45.26,0L390.4,16.07a20.27,20.27,0,0,1,19,23.91Z"/><path class="cls-4" d="M213.68,109.56V84.65h6.9a23,23,0,0,1,6.26.78,12.58,12.58,0,0,1,4.63,2.36,10,10,0,0,1,2.87,3.9,15.2,15.2,0,0,1,0,10.79,10,10,0,0,1-2.87,3.9,12.6,12.6,0,0,1-4.63,2.37,22.15,22.15,0,0,1-6.26.81Zm3.73-3h3.17c3.64,0,6.38-.83,8.24-2.48a8.93,8.93,0,0,0,2.78-7,8.85,8.85,0,0,0-2.78-7c-1.86-1.64-4.6-2.46-8.24-2.46h-3.17Zm1-.9V88.53h2.2q4.74,0,7.38,2.15c1.75,1.43,2.63,3.57,2.63,6.4a7.87,7.87,0,0,1-2.63,6.43q-2.64,2.16-7.38,2.16Zm3.25-3.21a6.42,6.42,0,0,0,4.33-1.32,5.1,5.1,0,0,0,1.53-4.06,5,5,0,0,0-1.53-4,6.47,6.47,0,0,0-4.33-1.31Z"/><path class="cls-4" d="M237.39,84.65h8.44v24.91h-8.44Zm4.7,21.92V87.64h-1v18.93Z"/><path class="cls-4" d="M248.44,84.65H255l6.87,9.6v-9.6h7.81v24.91h-6.57L256.24,100v9.56h-7.8Zm4.44,21.92V89.32l12.33,17.25h1V87.64h-1v17.25L252.88,87.64h-1v18.93Z"/><path class="cls-4" d="M272.26,84.65h14.68v6.53h-6.72V94h6.61v6.2h-6.61V103h7v6.54H272.26Zm12.18,21.92v-.9H277V97.5h7.09v-.9H277V88.53h7.47v-.89H276v18.93Z"/><path class="cls-4" d="M289.44,84.65H298a14.85,14.85,0,0,1,4.42.63A10.36,10.36,0,0,1,306,87.15a8.56,8.56,0,0,1,2.34,3,9.83,9.83,0,0,1,.84,4.17,8.51,8.51,0,0,1-.53,3.17,9.92,9.92,0,0,1-1.15,2.17,7.94,7.94,0,0,1-1.69,1.64l4.67,8.22h-9.33l-3.74-6.31v6.31h-7.95Zm7.77,16.24a13.26,13.26,0,0,0,2.83-.3l3.55,6h1.16L301,100.3a7.14,7.14,0,0,0,3.21-2.19,5.92,5.92,0,0,0,1.19-3.83,5.9,5.9,0,0,0-2.37-4.94,7.6,7.6,0,0,0-2.6-1.27,11.49,11.49,0,0,0-3.24-.43h-4v18.93h1v-5.68Zm-3.07-.89V88.53h3.07a8.48,8.48,0,0,1,5.32,1.5,5.65,5.65,0,0,1,0,8.49,8.54,8.54,0,0,1-5.32,1.48Zm3.25-3.1h.41a4.31,4.31,0,0,0,2.41-.64,2.78,2.78,0,0,0,0-4.25,4.31,4.31,0,0,0-2.41-.64h-.41Z"/><path class="cls-4" d="M225.62,35.83a4.58,4.58,0,0,1-.83,2.33,4,4,0,0,1-1.53,1.69q-.84.46-.84-.09a3.38,3.38,0,0,1,.5-.55c1-.94,1.51-1.72,1.51-2.33,0-1.31-1.3-2-3.89-2a22.16,22.16,0,0,0-9.55,2.6c-2,1.07-2.92,2-2.92,2.79s.59,1.25,1.78,1.83c.64.3,1.91.81,3.82,1.53s3.44,1.34,4.61,1.87a12.63,12.63,0,0,1,3.34,2.26,4.37,4.37,0,0,1,1.57,3.25c0,1.18-.7,2.48-2.1,3.88A25.34,25.34,0,0,1,212.78,60a24.5,24.5,0,0,1-8.78,2q-7.22,0-7.22-4.07t4.44-6.9a13.34,13.34,0,0,1,7.67-2.51c.64,0,.93.11.87.32s-.52.33-1.37.34a9.63,9.63,0,0,0-3.29.87,13,13,0,0,0-3.75,2.44,5.74,5.74,0,0,0-2.28,4.12A2.91,2.91,0,0,0,200.3,59c.82.67,2.39,1,4.71,1a22.11,22.11,0,0,0,6.85-1.1q7.32-2.41,9.14-5.3a3.33,3.33,0,0,0,.73-1.78c0-1.4-.85-2.5-2.56-3.29a83.77,83.77,0,0,0-8.31-3.16,11.43,11.43,0,0,1-3.5-1.8,3.34,3.34,0,0,1-1.44-2.7,4.25,4.25,0,0,1,1.72-3.1,13.07,13.07,0,0,1,4.13-2.45,25.83,25.83,0,0,1,8.82-2Q225.62,33.32,225.62,35.83Z"/><path class="cls-4" d="M227.31,60.46a3.48,3.48,0,0,1-1.58-.44,4.12,4.12,0,0,1-1.44-1.23,2.77,2.77,0,0,1-.59-1.71,3.77,3.77,0,0,1,.41-1.74,12,12,0,0,1,2.94-3.72,26.83,26.83,0,0,1,4.23-3.09,15,15,0,0,1,3.47-1.6,10.5,10.5,0,0,1,2.49-.32,3.51,3.51,0,0,1,2.08.62,1.68,1.68,0,0,1,.87,1.3c0,.16,0,.25,0,.28s-.11,0-.23-.05a2.49,2.49,0,0,0-2.26-.87A8.74,8.74,0,0,0,233.77,49a20.53,20.53,0,0,0-4.09,2.81,18.23,18.23,0,0,0-2.81,3.41A6.2,6.2,0,0,0,225.66,58c0,1.13.32,1.69,1,1.69a5.88,5.88,0,0,0,2.92-1.55,59.27,59.27,0,0,0,4.44-4q4.2-4.53,4.52-4.53a3.68,3.68,0,0,1,1.33.32c.51.22.68.48.5.78a14.4,14.4,0,0,0-2.74,6.63,9.68,9.68,0,0,0-.05,1,1.51,1.51,0,0,0,.37,1c.45.49,1.08.52,1.87.09a19.32,19.32,0,0,0,3.31-2.56,22.88,22.88,0,0,0,3.41-3.75.3.3,0,0,1,.41-.11c.15.08.23.14.23.2,0,.46-.73,1.46-2.17,3a27.09,27.09,0,0,1-3.32,3.13,6.85,6.85,0,0,1-4,1.6,2.29,2.29,0,0,1-2.33-1.74,5.14,5.14,0,0,1-.14-1.23,12.19,12.19,0,0,1,.87-4.34,17.48,17.48,0,0,0-1.69,1.82,27.31,27.31,0,0,1-3.5,3.34A6,6,0,0,1,227.31,60.46Z"/><path class="cls-4" d="M258.65,47c.7,0,1.05.37,1.05,1.12a7.2,7.2,0,0,1-1.05,3.08,34.75,34.75,0,0,0-1.55,3.2,9.41,9.41,0,0,0-.87,3.36,2.7,2.7,0,0,0,.36,1.67c.46.49,1.09.51,1.88.07a21.51,21.51,0,0,0,3.31-2.56,21.9,21.9,0,0,0,3.4-3.73.34.34,0,0,1,.44-.11c.17.08.25.15.25.23a.48.48,0,0,1-.09.25,18,18,0,0,1-2.47,3.15,22.79,22.79,0,0,1-3.43,3.09A5.61,5.61,0,0,1,256.64,61a3.08,3.08,0,0,1-2.19-.71,2.27,2.27,0,0,1-.64-1.66,10.4,10.4,0,0,1,.18-2,11.77,11.77,0,0,1,.69-2.17,29.29,29.29,0,0,1,1.43-3.06,4,4,0,0,0,.62-1.44c0-.23-.12-.34-.36-.34-.49,0-1.42.59-2.79,1.78a42.25,42.25,0,0,0-4.18,5,37.36,37.36,0,0,1-3.13,3.9,7.1,7.1,0,0,1-2.06.82c-.27,0-.41,0-.41-.13a1.29,1.29,0,0,1,.09-.39l.89-2.49c.54-1.49,1.11-3.13,1.74-4.91s1-2.86,1.14-3.22a5.8,5.8,0,0,0,.28-.94,3.19,3.19,0,0,1,.16-.66,2.15,2.15,0,0,1,.34-.62.87.87,0,0,1,.66-.37,5.42,5.42,0,0,1,1.05.09c.43.08.64.27.64.58a4.83,4.83,0,0,1-.5,1.39q-.51,1.08-2.88,7.38c1.1-1.34,2.48-2.89,4.16-4.64a44,44,0,0,1,4.25-4A5.41,5.41,0,0,1,258.65,47Z"/><path class="cls-4" d="M266.62,51.62a26.83,26.83,0,0,1,4.23-3.09,15,15,0,0,1,3.47-1.6,10.55,10.55,0,0,1,2.52-.32,3.82,3.82,0,0,1,2.33.83q6.25-14.53,12-14.53a2.81,2.81,0,0,1,2.6,1.09,1.93,1.93,0,0,1,.32,1,6.4,6.4,0,0,1-1,2.9,19,19,0,0,1-3,3.86,67.66,67.66,0,0,1-5.89,5.19q-3.84,3.09-4.25,3.45a45.26,45.26,0,0,0-2.29,6.53,20.64,20.64,0,0,0-.82,4.71,4.73,4.73,0,0,0,.55,2.47,1.18,1.18,0,0,0,.82.71,1.23,1.23,0,0,0,.94-.14,4.83,4.83,0,0,0,.59-.43,2.76,2.76,0,0,1,.5-.35c.2-.1.35-.13.44-.07s.07.23-.05.51a9.45,9.45,0,0,1-.68.77,2.93,2.93,0,0,1-1.72.51,11.27,11.27,0,0,1-1.3,0c-1.46-.24-2.19-1.31-2.19-3.2a16.75,16.75,0,0,1,.73-5.07q1-3.19,1.83-5.3-7.32,8.51-10.37,8.5A3.48,3.48,0,0,1,265.3,60a4,4,0,0,1-1.44-1.23,2.77,2.77,0,0,1-.59-1.71,3.77,3.77,0,0,1,.41-1.74A12,12,0,0,1,266.62,51.62Zm12.18-3.45a4.53,4.53,0,0,0-1.92-.28A8.39,8.39,0,0,0,273.34,49a20.53,20.53,0,0,0-4.09,2.81,17.85,17.85,0,0,0-2.81,3.41A6.2,6.2,0,0,0,265.23,58c0,1.13.32,1.69,1,1.69a5.88,5.88,0,0,0,2.92-1.55,92.91,92.91,0,0,0,9.05-8.41Zm13.39-11.52a4.15,4.15,0,0,0,.59-1.85q0-.75-.66-.75a3.3,3.3,0,0,0-1.76.82q-5,3.84-9.09,12.84a39.27,39.27,0,0,0,6.21-5.12A25.58,25.58,0,0,0,292.19,36.65Z"/><path class="cls-4" d="M280.54,77.37a4,4,0,0,1-.92-.14c-1.55-.4-2.33-1.21-2.33-2.45s.8-2.78,2.4-4.63,5-4.5,10.12-7.91A111.52,111.52,0,0,0,295.25,50c-.36.43-1.08,1.35-2.15,2.76s-2,2.62-2.83,3.61a17.81,17.81,0,0,1-3,2.81,5.4,5.4,0,0,1-3.2,1.33,3.46,3.46,0,0,1-2.26-.66,2.25,2.25,0,0,1-.89-1.4,10.29,10.29,0,0,1-.09-1.23,7,7,0,0,1,.91-3.38,15.15,15.15,0,0,1,3.7-4.8,2.42,2.42,0,0,1,1.53-.82,1.92,1.92,0,0,1,1.21.41c.4.43.52.79.37,1.1a15.43,15.43,0,0,0-4,3.88A9.25,9.25,0,0,0,283,57.49a5.77,5.77,0,0,0,0,.8.91.91,0,0,0,.39.77,1.31,1.31,0,0,0,.8.3,4.39,4.39,0,0,0,3-1.51,42.47,42.47,0,0,0,3-3.17c.95-1.11,2-2.45,3.22-4l2.38-3.06a1.54,1.54,0,0,1,1.16-.73,3.15,3.15,0,0,1,1.51.41c.52.27.74.49.67.64s-.86,1.88-2.34,5.18-2.55,5.68-3.22,7.11a27.65,27.65,0,0,0,3.73-2.81,33,33,0,0,0,4.45-4.5q.47-.56.6-.09a.71.71,0,0,1,0,.29,1.14,1.14,0,0,1-.27.58,37.73,37.73,0,0,1-4.53,4.7,28.8,28.8,0,0,1-4.93,3.84q-3.88,8-5.21,10.05C285,75.67,282.76,77.37,280.54,77.37ZM288.94,64a75.78,75.78,0,0,0-7.83,6.49q-2.36,2.37-2.35,4.08c0,1.15.39,1.72,1.18,1.72a3.6,3.6,0,0,0,2.11-.94,11.61,11.61,0,0,0,2.28-2.49A22.91,22.91,0,0,0,286,70.17c.38-.75.9-1.84,1.57-3.29S288.7,64.46,288.94,64Z"/><path class="cls-4" d="M309.28,34.28q0,.91-1.92,3.33-2.79,3.2-3.25,3.2-.18,0-.18-.27a6,6,0,0,1,1.33-1.76,8.4,8.4,0,0,0,1.82-3.13,1.52,1.52,0,0,0,0-1.33,1.83,1.83,0,0,1-.25-1,1.35,1.35,0,0,1,2.07,0A1.69,1.69,0,0,1,309.28,34.28Z"/><path class="cls-4" d="M311.93,60.41c-.4.46-.48.83-.25,1.1a1,1,0,0,0,.77.41,3.11,3.11,0,0,0,.89-.14,9.6,9.6,0,0,0,3.82-2.35A5,5,0,0,0,319,55.84c0-.67-.75-1.4-2.24-2.19-.7-.37-1.1-.58-1.19-.64A3.9,3.9,0,0,1,314,51.37c-.43.73-1.11,1.78-2.06,3.15-.21.24-.41.3-.59.16s-.2-.33-.05-.57a17.46,17.46,0,0,0,2.47-4.3q.31-2.51,3.66-4.52a12,12,0,0,1,6.07-2,3.72,3.72,0,0,1,2.45.62,1.69,1.69,0,0,1,.71,1.21,3.5,3.5,0,0,1-.35,1.37A3.58,3.58,0,0,1,325,47.94a.3.3,0,0,1-.46-.09c-.06-.19.07-.44.39-.76a2.31,2.31,0,0,0,.62-1.3.79.79,0,0,0-.73-1h-.28A10.57,10.57,0,0,0,320,46.11a11.11,11.11,0,0,0-4.18,3.43,2.56,2.56,0,0,0-.6,1.57c0,.54.37,1,1.1,1.44.3.19.82.48,1.55.87l1.56.87a6.59,6.59,0,0,1,1.09.87,1.83,1.83,0,0,1,.69,1.09,3.75,3.75,0,0,1-1.28,3,11.93,11.93,0,0,1-6.4,3.34,8.49,8.49,0,0,1-1.94.22,1.37,1.37,0,0,1-1.35-.73,1,1,0,0,1-.13-.57,2.49,2.49,0,0,1,.73-1.25A6.85,6.85,0,0,1,313.07,59a.21.21,0,0,1,.23,0,.21.21,0,0,1,0,.23c0,.09-.19.19-.48.31A2.6,2.6,0,0,0,311.93,60.41Z"/><path class="cls-5" d="M241.48,143.32l-2.55.47c-.09,0-.14,0-.14-.16a.7.7,0,0,1,.44-.59.6.6,0,0,1,.21-.09l1.3-.18c.14,0,.39,0,.76,0a34.47,34.47,0,0,1,1.39-4q1.11-2.84,2.18-5.2a19.39,19.39,0,0,1-2.78,2.21c-.22.13-.32.14-.32,0s.09-.24.27-.38a22.08,22.08,0,0,0,3.76-3.91.45.45,0,0,1,.32-.15,1.67,1.67,0,0,1,.78.17c.21.12.31.22.31.31s0,0,0,.05q-4.12,7.74-5,10.88c.31,0,.73,0,1.27,0a10.41,10.41,0,0,1,1.51.11c.2,0,.28.13.25.25s-.19.17-.46.17c-1.63,0-2.53,0-2.68,0v0a.71.71,0,0,1-.4.18A.35.35,0,0,1,241.48,143.32Z"/><path class="cls-5" d="M249.59,136.2a1.8,1.8,0,0,0,.58,1.39,2.11,2.11,0,0,0,1.48.53h.07a3.24,3.24,0,0,0,1.85-.86.35.35,0,0,1,.26-.07c.2,0,.18.15-.05.41a2.76,2.76,0,0,1-1.05.67,3.73,3.73,0,0,1-1.4.29h-.07a3.19,3.19,0,0,1-2-.63,2,2,0,0,1-.8-1.69,4.74,4.74,0,0,1,1.87-3.64,5.3,5.3,0,0,1,3.5-1.34,4,4,0,0,1,2.39.66,2.7,2.7,0,0,1,1.11,1.7,6.38,6.38,0,0,1,.09,1.08,8,8,0,0,1-1,3.65,11.06,11.06,0,0,1-2.84,3.41,7.91,7.91,0,0,1-3.41,1.81q-.78.09-1.11.09a1.93,1.93,0,0,1-.74-.18,3.08,3.08,0,0,1-.76-.46,2,2,0,0,1-.58-1.59,3.68,3.68,0,0,1,.07-.73c0-.16.12-.23.27-.2s.23.08.21.15a3.9,3.9,0,0,0,0,.59,2.17,2.17,0,0,0,.11.67,1.67,1.67,0,0,0,1.14,1,1.74,1.74,0,0,0,.51.11l.41,0,.51-.05a5.42,5.42,0,0,0,2.62-1.63,10.72,10.72,0,0,0,2.92-5.21,6.4,6.4,0,0,0,.21-1.39c0-.34,0-.55,0-.64a2.27,2.27,0,0,0-.68-1.63,2.73,2.73,0,0,0-2-.64,3,3,0,0,0-2.36,1.19,5.11,5.11,0,0,0-1.2,2.67A3.08,3.08,0,0,0,249.59,136.2Z"/><path class="cls-5" d="M268.23,135.9a2,2,0,0,1,1.24,2,4.5,4.5,0,0,1-.78,2.57,6.58,6.58,0,0,1-2,1.89,10.48,10.48,0,0,1-2.61,1.18,9.23,9.23,0,0,1-2.73.43q-3.94,0-3.94-2.49a2,2,0,0,1,.2-.86c.13-.28.3-.42.52-.42a.63.63,0,0,1,.21.05c.26.08.35.24.28.46a2.26,2.26,0,0,0-.12.77,1.68,1.68,0,0,0,.94,1.5,3.63,3.63,0,0,0,1.79.49h.17a7,7,0,0,0,3-.75,7.25,7.25,0,0,0,2.5-2,4.44,4.44,0,0,0,1-2.78,1.85,1.85,0,0,0-.44-1.28,2.84,2.84,0,0,0-2.27-.78,4.81,4.81,0,0,0-1.5.23,5.42,5.42,0,0,0-1.54.82,5.32,5.32,0,0,1-1,.65c-.22.05-.32,0-.31-.24a1.55,1.55,0,0,1,.26-.59,32.32,32.32,0,0,1,2.66-3.91s-.05-.08-.1-.17a.88.88,0,0,1-.1-.18l-.09-.19a.38.38,0,0,1,0-.19l0-.13c0-.12.16-.2.37-.24a17.1,17.1,0,0,1,3.47-.25,31.94,31.94,0,0,1,3.79.18c.21,0,.32.11.32.24s-.21.33-.63.33q-5.14,0-6,.51a5.88,5.88,0,0,0-1.32,1.85,11,11,0,0,0-.86,1.33,5,5,0,0,1,2.65-.55A7.27,7.27,0,0,1,268.23,135.9Z"/><path class="cls-5" d="M280.9,135.9a2,2,0,0,1,1.24,2,4.5,4.5,0,0,1-.78,2.57,6.47,6.47,0,0,1-2,1.89,10.41,10.41,0,0,1-2.6,1.18,9.35,9.35,0,0,1-2.74.43c-2.62,0-3.94-.83-3.94-2.49a2,2,0,0,1,.2-.86c.13-.28.31-.42.52-.42a.63.63,0,0,1,.21.05c.26.08.36.24.28.46a2.26,2.26,0,0,0-.12.77,1.69,1.69,0,0,0,.94,1.5,3.7,3.7,0,0,0,1.8.49h.16a7.09,7.09,0,0,0,3-.75,7.35,7.35,0,0,0,2.5-2,4.44,4.44,0,0,0,1-2.78,1.89,1.89,0,0,0-.44-1.28,2.87,2.87,0,0,0-2.27-.78,4.88,4.88,0,0,0-1.51.23,5.55,5.55,0,0,0-1.54.82,5,5,0,0,1-1,.65q-.33.08-.3-.24a1.5,1.5,0,0,1,.25-.59,32.16,32.16,0,0,1,2.67-3.91l-.11-.17a.88.88,0,0,1-.1-.18,2.05,2.05,0,0,0-.08-.19.32.32,0,0,1-.05-.19.65.65,0,0,1,0-.13c0-.12.15-.2.37-.24a17,17,0,0,1,3.46-.25,31.82,31.82,0,0,1,3.79.18c.21,0,.32.11.32.24s-.21.33-.62.33q-5.15,0-6.05.51a5.88,5.88,0,0,0-1.32,1.85,11,11,0,0,0-.86,1.33,5,5,0,0,1,2.65-.55A7.27,7.27,0,0,1,280.9,135.9Z"/><line class="cls-6" x1="190.69" y1="134.82" x2="234.05" y2="136.4"/><line class="cls-6" x1="293.72" y1="138.26" x2="336.98" y2="136.54"/></svg>
