<svg id="Layer_1" data-name="Layer 1" xmlns="http://www.w3.org/2000/svg" width="68.45mm" height="32.12mm" viewBox="0 0 194.03 91.04"><defs><style>.cls-1{fill:#f0c3dc;}.cls-2{fill:#fff;}</style></defs><title>menu-pink</title><rect class="cls-1" width="194.03" height="91.04" rx="29.86"/><path class="cls-2" d="M49.07,52.77q-4.5,8.44-8.5,8.45A2.28,2.28,0,0,1,38,58.62a6.63,6.63,0,0,1,1.2-3.45,60.48,60.48,0,0,1,6.38-7.88q4.32-4.66,7.32-7.42l1.9-6.45a10.74,10.74,0,0,1-6.5,2.75c-.33,0-.51-.07-.52-.3s.12-.38.42-.45l.2-.05a7.86,7.86,0,0,0,4.43-2.25,13.66,13.66,0,0,0,3.42-4.7c.13-.43.72-.64,1.75-.63s1.53.23,1.5.63L56.07,37q6.8-5.74,9.75-5.9h.7q3.95,0,5.45,2.6a9.9,9.9,0,0,1,1.3,5.15q0,4.4-2.7,12.6a5.48,5.48,0,0,0-.37,1.47s.14-.08.27-.3.34-.54.63-1,1-1.53,2-3.3a96.59,96.59,0,0,1,11.7-16.1,5.51,5.51,0,0,1,3.9-2,2.06,2.06,0,0,1,1.75.8,2.85,2.85,0,0,1,.6,1.75,11.87,11.87,0,0,1-.42,2.65q-.44,1.7-2.58,7.1-2.66,6.6-2.65,10.8c0,2.17.6,3.25,1.8,3.25a6.41,6.41,0,0,0,3.45-1.65A32,32,0,0,0,96,49.42q.25-.35.48-.15c.15.13.22.24.22.32a.3.3,0,0,1-.1.23,23.13,23.13,0,0,1-3,3.6q-3.34,3.55-5.4,4.2a6,6,0,0,1-2,.35c-2.2,0-3.3-1.62-3.3-4.75a18.74,18.74,0,0,1,.6-4.75c.4-1.53.73-2.72,1-3.55s.57-1.81,1-2.93.73-2,1-2.57c.87-2.17,1.4-3.52,1.6-4.05a4,4,0,0,0,.3-1.38.94.94,0,0,0-.3-.8,1.31,1.31,0,0,0-.8-.22,3.07,3.07,0,0,0-1.55.9,53.45,53.45,0,0,0-8.67,10.4,94.62,94.62,0,0,0-6.78,11.15c-.27.57-.53.85-.8.85s-.55-.24-.85-.73a2.41,2.41,0,0,1-.45-1,1.22,1.22,0,0,1,0-.42,32.89,32.89,0,0,0,1.88-7,42.56,42.56,0,0,0,.57-6.15q0-8.44-3.65-8.45-3.4,0-12.35,8.2c-.3.87-1,2.43-2,4.7C51.35,48.29,50.14,50.77,49.07,52.77Zm-8.35,6.75q3.11,0,7.6-8.65a69.05,69.05,0,0,0,3.6-7.8q-2.66,2.51-5.85,6.12t-4.55,5.43c-1.17,1.57-1.75,2.77-1.75,3.62S40.09,59.52,40.72,59.52Z"/><path class="cls-2" d="M106.77,42.27c1.8,0,2.7.87,2.7,2.6a3.21,3.21,0,0,1-.75,2.2,10,10,0,0,1-4,3.22,13.63,13.63,0,0,1-4.75,1.53c-.47,0-.72-.1-.75-.4,0-.13,0-.22.13-.25a1.12,1.12,0,0,1,.27-.05,7.93,7.93,0,0,0,3-1.1,16.08,16.08,0,0,0,4.9-3.7,3,3,0,0,0,.65-1.73.72.72,0,0,0-.8-.82,4.2,4.2,0,0,0-1.75.55,17.2,17.2,0,0,0-5,3.82,13.91,13.91,0,0,0-3.4,5.33A5.14,5.14,0,0,0,96.92,55a2.18,2.18,0,0,0,.65,1.48,2.59,2.59,0,0,0,2,.7,9.34,9.34,0,0,0,3.45-.8,18.29,18.29,0,0,0,8.7-7c.2-.27.38-.32.55-.15s.2.15.2.25a.61.61,0,0,1-.15.35,17.86,17.86,0,0,1-3.8,4.45q-4.45,3.8-8.65,3.8-3.6,0-5.05-2.15A3.67,3.67,0,0,1,94.27,54a8.07,8.07,0,0,1,.65-2.85c.83-1.9,2.62-3.85,5.35-5.85S105.17,42.27,106.77,42.27Z"/><path class="cls-2" d="M125.12,42.62c.77,0,1.15.41,1.15,1.22a7.85,7.85,0,0,1-1.15,3.38,38.76,38.76,0,0,0-1.7,3.5,10.39,10.39,0,0,0-1,3.67,2.89,2.89,0,0,0,.4,1.83c.5.53,1.18.56,2,.07a22.28,22.28,0,0,0,3.63-2.8,23.9,23.9,0,0,0,3.72-4.07.37.37,0,0,1,.48-.13c.18.09.27.17.27.25a.48.48,0,0,1-.1.28,19.48,19.48,0,0,1-2.7,3.45,24.72,24.72,0,0,1-3.75,3.37,6.14,6.14,0,0,1-3.55,1.28,3.37,3.37,0,0,1-2.4-.78,2.5,2.5,0,0,1-.7-1.82,11.48,11.48,0,0,1,.2-2.13,12.62,12.62,0,0,1,.75-2.37,33.82,33.82,0,0,1,1.58-3.35,4.53,4.53,0,0,0,.67-1.58c0-.25-.13-.37-.4-.37-.53,0-1.55.65-3.05,1.95A47.21,47.21,0,0,0,115,52.94a39.38,39.38,0,0,1-3.43,4.28,7.89,7.89,0,0,1-2.25.9q-.45,0-.45-.15a1.33,1.33,0,0,1,.1-.43c.07-.18.39-1.09,1-2.72s1.22-3.43,1.91-5.38,1.09-3.12,1.25-3.52a5.84,5.84,0,0,0,.3-1,3.82,3.82,0,0,1,.17-.72,2.74,2.74,0,0,1,.37-.68,1,1,0,0,1,.73-.4,5.86,5.86,0,0,1,1.15.1c.47.09.7.3.7.63a5,5,0,0,1-.55,1.52q-.56,1.19-3.15,8.08,1.8-2.2,4.55-5.08A47.88,47.88,0,0,1,122,44,5.92,5.92,0,0,1,125.12,42.62Z"/><path class="cls-2" d="M152.42,53.27a27.15,27.15,0,0,1-3.5,3.25A7.22,7.22,0,0,1,144.57,58a2.44,2.44,0,0,1-1.17-.43,2.09,2.09,0,0,1-1-1.22,5.07,5.07,0,0,1-.25-1.55,14,14,0,0,1,1-5.15,18.26,18.26,0,0,0-1.38,2.12,20.21,20.21,0,0,1-3,3.83,5.09,5.09,0,0,1-3.57,1.8,5.22,5.22,0,0,1-1.95-.45,3.31,3.31,0,0,1-2-3.3,11.2,11.2,0,0,1,2-6.08c1.36-2.08,2.21-3.19,2.58-3.32a5.71,5.71,0,0,1,1.42-.2,3.84,3.84,0,0,1,1.38.27c.47.19.4.5-.2.93a18.14,18.14,0,0,0-4.9,7,7.52,7.52,0,0,0-.55,2.52c0,.69.17,1.13.52,1.33a2.12,2.12,0,0,0,1,.3,6.09,6.09,0,0,0,3.28-1.68,35.93,35.93,0,0,0,5.72-7c.33-.5.92-1.48,1.75-2.93s1.33-2.3,1.5-2.57a5.75,5.75,0,0,1,1.87.37c.72.25,1,.58.73,1-1.6,2.67-2.73,4.63-3.38,5.9a14,14,0,0,0-1.32,4.45c0,.3-.05.68-.05,1.15a1.65,1.65,0,0,0,.4,1.15c.5.53,1.19.56,2.08.07a21.07,21.07,0,0,0,3.62-2.8,24.57,24.57,0,0,0,3.7-4.07.36.36,0,0,1,.47-.13c.19.09.28.17.28.25a.48.48,0,0,1-.1.28A19.48,19.48,0,0,1,152.42,53.27Z"/></svg>
