<svg id="Layer_1" data-name="Layer 1" xmlns="http://www.w3.org/2000/svg" width="68.45mm" height="32.12mm" viewBox="0 0 194.03 91.04"><defs><style>.cls-1{fill:#86bec6;}.cls-2{fill:#fff;}</style></defs><title>sandys</title><rect class="cls-1" width="194.03" height="91.04" rx="29.86"/><path class="cls-2" d="M57,27.45a5,5,0,0,1-.9,2.54,4.45,4.45,0,0,1-1.68,1.85c-.62.34-.92.3-.92-.1a4.06,4.06,0,0,1,.55-.6q1.65-1.55,1.65-2.55,0-2.14-4.25-2.14A24.26,24.26,0,0,0,41,29.3c-2.14,1.16-3.2,2.18-3.2,3,0,.71.65,1.37,2,2q1,.51,4.17,1.68c2.08.78,3.77,1.47,5.05,2a13.65,13.65,0,0,1,3.65,2.48,4.76,4.76,0,0,1,1.73,3.54q0,1.95-2.3,4.25A27.81,27.81,0,0,1,43,53.92a26.93,26.93,0,0,1-9.6,2.22q-7.9,0-7.9-4.44t4.85-7.56a14.59,14.59,0,0,1,8.4-2.75c.7,0,1,.12,1,.35s-.57.36-1.5.38a10.23,10.23,0,0,0-3.6,1,14.17,14.17,0,0,0-4.1,2.67Q28,48,28,50.24a3.17,3.17,0,0,0,1.35,2.5c.9.74,2.61,1.1,5.15,1.1a23.91,23.91,0,0,0,7.5-1.2q8-2.64,10-5.8a3.64,3.64,0,0,0,.8-2c0-1.53-.94-2.73-2.8-3.59a92.87,92.87,0,0,0-9.1-3.46,12.68,12.68,0,0,1-3.83-2,3.64,3.64,0,0,1-1.57-2.95,4.68,4.68,0,0,1,1.87-3.4,14.27,14.27,0,0,1,4.53-2.68,28.32,28.32,0,0,1,9.65-2.14C55.18,24.7,57,25.61,57,27.45Z"/><path class="cls-2" d="M58.87,54.39a3.76,3.76,0,0,1-1.73-.47,4.51,4.51,0,0,1-1.57-1.35,3,3,0,0,1-.65-1.87,4.15,4.15,0,0,1,.45-1.9,13,13,0,0,1,3.22-4.08,29.07,29.07,0,0,1,4.63-3.38A16.29,16.29,0,0,1,67,39.59a11.34,11.34,0,0,1,2.72-.35,3.87,3.87,0,0,1,2.28.68,1.84,1.84,0,0,1,1,1.42.54.54,0,0,1,0,.3s-.12,0-.25,0a2.74,2.74,0,0,0-2.48-1,9.43,9.43,0,0,0-4.25,1.23A22,22,0,0,0,61.47,45a19.42,19.42,0,0,0-3.08,3.72,6.84,6.84,0,0,0-1.32,3c0,1.23.35,1.85,1,1.85s1.76-.57,3.2-1.71q3.54-3,4.85-4.39,4.59-5,5-5a4,4,0,0,1,1.45.35c.56.24.75.52.55.86a15.85,15.85,0,0,0-3,7.25,9.05,9.05,0,0,0-.05,1.14,1.63,1.63,0,0,0,.4,1.15c.5.54,1.18.57,2,.1a20.87,20.87,0,0,0,3.62-2.79,25.74,25.74,0,0,0,3.73-4.1.34.34,0,0,1,.45-.13c.16.08.25.16.25.23,0,.5-.8,1.59-2.38,3.27a29.52,29.52,0,0,1-3.62,3.42A7.47,7.47,0,0,1,70.22,55a2.5,2.5,0,0,1-2.55-1.9,5.52,5.52,0,0,1-.15-1.35,13.25,13.25,0,0,1,1-4.75,19.75,19.75,0,0,0-1.85,2,29.1,29.1,0,0,1-3.83,3.65A6.54,6.54,0,0,1,58.87,54.39Z"/><path class="cls-2" d="M93.17,39.64c.76,0,1.15.41,1.15,1.23a8,8,0,0,1-1.15,3.37,37.38,37.38,0,0,0-1.7,3.5,10.22,10.22,0,0,0-1,3.68,2.84,2.84,0,0,0,.4,1.82c.5.54,1.18.56,2,.08a23.38,23.38,0,0,0,3.62-2.8,24.41,24.41,0,0,0,3.73-4.07.36.36,0,0,1,.47-.13c.18.08.28.17.28.25a.56.56,0,0,1-.1.27,19.85,19.85,0,0,1-2.7,3.46,24.72,24.72,0,0,1-3.75,3.37A6.16,6.16,0,0,1,91,55a3.42,3.42,0,0,1-2.4-.78,2.5,2.5,0,0,1-.7-1.83,10.52,10.52,0,0,1,.2-2.12,12.69,12.69,0,0,1,.75-2.38,35.29,35.29,0,0,1,1.57-3.35,4.53,4.53,0,0,0,.68-1.57c0-.25-.14-.37-.4-.37-.54,0-1.55.65-3,1.94A47.35,47.35,0,0,0,83,50a40.78,40.78,0,0,1-3.42,4.27,7.89,7.89,0,0,1-2.25.9q-.45,0-.45-.15a1.23,1.23,0,0,1,.1-.42c.06-.18.39-1.09,1-2.73s1.22-3.42,1.9-5.37S81,43.34,81.14,43a6.09,6.09,0,0,0,.3-1,4.43,4.43,0,0,1,.18-.72,2.31,2.31,0,0,1,.37-.68.94.94,0,0,1,.73-.4,5.18,5.18,0,0,1,1.15.1c.46.08.7.29.7.62A5.2,5.2,0,0,1,84,42.37q-.55,1.17-3.15,8.08c1.2-1.47,2.71-3.16,4.55-5.08A47,47,0,0,1,90.07,41,5.89,5.89,0,0,1,93.17,39.64Z"/><path class="cls-2" d="M101.89,44.72a28.62,28.62,0,0,1,4.63-3.38,16.44,16.44,0,0,1,3.79-1.75,11.52,11.52,0,0,1,2.75-.35,4.29,4.29,0,0,1,2.56.9q6.84-15.88,13.09-15.9a3.07,3.07,0,0,1,2.85,1.21,2.06,2.06,0,0,1,.35,1,6.88,6.88,0,0,1-1.07,3.18,20.86,20.86,0,0,1-3.32,4.22,73.21,73.21,0,0,1-6.46,5.68c-2.79,2.25-4.35,3.51-4.65,3.77a52.36,52.36,0,0,0-2.5,7.15,22.64,22.64,0,0,0-.89,5.15,5.1,5.1,0,0,0,.6,2.7,1.23,1.23,0,0,0,.9.78,1.34,1.34,0,0,0,1-.15,4.77,4.77,0,0,0,.65-.48,3.09,3.09,0,0,1,.55-.37c.22-.12.38-.14.47-.07s.09.25,0,.54a8.55,8.55,0,0,1-.75.86,3.24,3.24,0,0,1-1.87.54c-.72,0-1.19,0-1.42,0-1.6-.27-2.41-1.44-2.41-3.5a18.31,18.31,0,0,1,.81-5.56c.73-2.33,1.39-4.26,2-5.8q-8,9.31-11.36,9.3a3.75,3.75,0,0,1-1.72-.47,4.51,4.51,0,0,1-1.57-1.35,3,3,0,0,1-.66-1.87,4.28,4.28,0,0,1,.45-1.9A13.14,13.14,0,0,1,101.89,44.72ZM115.21,41a4.89,4.89,0,0,0-2.09-.31,9,9,0,0,0-3.88,1.23A21.73,21.73,0,0,0,104.77,45a19.42,19.42,0,0,0-3.08,3.72,6.84,6.84,0,0,0-1.32,3c0,1.23.34,1.85,1,1.85s1.77-.57,3.21-1.71a103.38,103.38,0,0,0,9.9-9.2Zm14.66-12.61a4.46,4.46,0,0,0,.65-2c0-.55-.25-.83-.73-.83a3.67,3.67,0,0,0-1.92.9q-5.5,4.21-10,14.06a42.82,42.82,0,0,0,6.8-5.61A28.13,28.13,0,0,0,129.87,28.34Z"/><path class="cls-2" d="M117.12,72.89a4.25,4.25,0,0,1-1-.15c-1.71-.43-2.56-1.32-2.56-2.67s.88-3,2.63-5.08,5.44-4.91,11.08-8.65a122.09,122.09,0,0,0,5.94-13.45q-.6.7-2.34,3c-1.17,1.55-2.21,2.87-3.1,3.95A20.45,20.45,0,0,1,124.52,53a6,6,0,0,1-3.5,1.44,3.8,3.8,0,0,1-2.48-.72,2.45,2.45,0,0,1-1-1.53,12.64,12.64,0,0,1-.1-1.34,7.83,7.83,0,0,1,1-3.71,16.41,16.41,0,0,1,4.06-5.25,2.62,2.62,0,0,1,1.67-.89,2.17,2.17,0,0,1,1.33.44q.65.7.39,1.2a17.17,17.17,0,0,0-4.35,4.25,10.2,10.2,0,0,0-1.79,4.3,5.44,5.44,0,0,0-.06.88,1,1,0,0,0,.43.85,1.4,1.4,0,0,0,.88.33,4.91,4.91,0,0,0,3.25-1.65q1.7-1.65,3.25-3.48T131,43.7l2.6-3.36a1.7,1.7,0,0,1,1.27-.79,3.58,3.58,0,0,1,1.65.44c.57.31.81.54.73.71s-.93,2-2.55,5.67-2.79,6.21-3.53,7.77a29,29,0,0,0,4.08-3.07,35.22,35.22,0,0,0,4.87-4.93c.34-.4.55-.43.65-.09a.62.62,0,0,1,.06.32,1.13,1.13,0,0,1-.31.62,40.65,40.65,0,0,1-4.94,5.15,31.2,31.2,0,0,1-5.41,4.2q-4.25,8.76-5.69,11C122,71.05,119.55,72.89,117.12,72.89Zm9.19-14.65a84.13,84.13,0,0,0-8.57,7.1q-2.58,2.61-2.58,4.48c0,1.25.44,1.88,1.3,1.88a4,4,0,0,0,2.31-1,13.34,13.34,0,0,0,2.5-2.72A27,27,0,0,0,123.09,65c.42-.82,1-2,1.72-3.6S126.05,58.78,126.31,58.24Z"/><path class="cls-2" d="M148.56,25.74c0,.67-.7,1.89-2.1,3.65-2,2.34-3.21,3.5-3.55,3.5-.13,0-.2-.09-.2-.3a6.94,6.94,0,0,1,1.45-1.92,9,9,0,0,0,2-3.43,1.59,1.59,0,0,0,0-1.44,2.18,2.18,0,0,1-.28-1.16,1.49,1.49,0,0,1,2.28.06A1.83,1.83,0,0,1,148.56,25.74Z"/><path class="cls-2" d="M151.46,54.34c-.43.5-.52.9-.27,1.21A1.11,1.11,0,0,0,152,56a3.06,3.06,0,0,0,1-.15,10.52,10.52,0,0,0,4.18-2.57,5.49,5.49,0,0,0,2-3.93c0-.73-.81-1.53-2.45-2.39-.76-.4-1.2-.64-1.3-.71a4.26,4.26,0,0,1-1.7-1.79c-.46.79-1.21,1.94-2.25,3.44-.23.27-.45.33-.65.18s-.21-.36-.05-.62a18.75,18.75,0,0,0,2.7-4.71q.36-2.75,4-4.94a13.15,13.15,0,0,1,6.65-2.21,4.11,4.11,0,0,1,2.68.68,1.86,1.86,0,0,1,.77,1.32,3.73,3.73,0,0,1-.37,1.5,3.91,3.91,0,0,1-1.53,1.61.32.32,0,0,1-.5-.11c-.06-.2.08-.47.43-.82a2.52,2.52,0,0,0,.67-1.43.87.87,0,0,0-.8-1.1h-.3a11.54,11.54,0,0,0-4.87,1.46,12,12,0,0,0-4.58,3.75,2.82,2.82,0,0,0-.65,1.72c0,.58.4,1.11,1.2,1.57.34.21.9.52,1.7,1s1.37.75,1.7.94a7.3,7.3,0,0,1,1.2,1,2,2,0,0,1,.75,1.21c.17,1-.3,2.09-1.4,3.29a12.87,12.87,0,0,1-7,3.65,9,9,0,0,1-2.12.25,1.5,1.5,0,0,1-1.48-.79,1.08,1.08,0,0,1-.15-.63,2.83,2.83,0,0,1,.8-1.37,7.72,7.72,0,0,1,2.4-1.46.23.23,0,0,1,.25.06.21.21,0,0,1,0,.25c0,.09-.21.21-.52.34A2.82,2.82,0,0,0,151.46,54.34Z"/></svg>
