<svg id="Layer_1" data-name="Layer 1" xmlns="http://www.w3.org/2000/svg" width="193.24mm" height="66.3mm" viewBox="0 0 547.76 187.93"><defs><style>.cls-1{fill:#f1c3db;}.cls-1,.cls-2{stroke:#fff;}.cls-1,.cls-2,.cls-6{stroke-miterlimit:10;}.cls-2{fill:none;}.cls-3{fill:#f06ba8;}.cls-4,.cls-6{fill:#fff;}.cls-5{fill:#f7ec36;}.cls-6{stroke:#f7ec36;stroke-width:0.25px;}</style></defs><title>logo</title><polygon class="cls-1" points="365.39 62.4 407.62 134.35 492.09 134.35 534.33 62.4 365.39 62.4"/><polygon class="cls-1" points="11.64 62.4 53.88 134.35 138.35 134.35 180.58 62.4 11.64 62.4"/><line class="cls-2" x1="25.25" y1="85.39" x2="126.43" y2="85.39"/><line class="cls-2" x1="40.21" y1="110.33" x2="129.74" y2="110.97"/><line class="cls-2" x1="419.08" y1="85.39" x2="520.95" y2="85.39"/><line class="cls-2" x1="416.41" y1="110.33" x2="505.94" y2="110.97"/><path class="cls-3" d="M415.8,146.78c-2.08,12.3-14,23-26.41,23.86l-93.26,6.17a409.19,409.19,0,0,1-45.26,0l-90.76-6.12c-12.44-.84-24.56-11.54-26.93-23.79l-18.55-96C112.27,38.65,120.52,28,133,27.21l117.91-7.35a438,438,0,0,1,45.26,0l117,7.35A20,20,0,0,1,432,51Z"/><path class="cls-2" d="M415.8,146.78c-2.08,12.3-14,23-26.41,23.86l-93.26,6.17a409.19,409.19,0,0,1-45.26,0l-90.76-6.12c-12.44-.84-24.56-11.54-26.93-23.79l-18.55-96C112.27,38.65,120.52,28,133,27.21l117.91-7.35a438,438,0,0,1,45.26,0l117,7.35A20,20,0,0,1,432,51Z"/><path class="cls-3" d="M407.73,139.35c-2,12.3-13.84,23.09-26.29,24l-85.32,6a385.77,385.77,0,0,1-45.24,0l-82.39-5.92c-12.44-.89-24.57-11.64-27-23.89L125.78,58.3c-2.38-12.24,5.85-22.94,18.3-23.77l106.79-7.16a409.19,409.19,0,0,1,45.26,0L402,34.52A20.26,20.26,0,0,1,421,58.42Z"/><path class="cls-2" d="M407.73,139.35c-2,12.3-13.84,23.09-26.29,24l-85.32,6a385.77,385.77,0,0,1-45.24,0l-82.39-5.92c-12.44-.89-24.57-11.64-27-23.89L125.78,58.3c-2.38-12.24,5.85-22.94,18.3-23.77l106.79-7.16a409.19,409.19,0,0,1,45.26,0L402,34.52A20.26,20.26,0,0,1,421,58.42Z"/><path class="cls-4" d="M225.32,128V103.09h6.9a22.55,22.55,0,0,1,6.26.79,12.42,12.42,0,0,1,4.63,2.35,10.17,10.17,0,0,1,2.87,3.9,15.2,15.2,0,0,1,0,10.79,10.13,10.13,0,0,1-2.87,3.91,12.91,12.91,0,0,1-4.63,2.37,22.54,22.54,0,0,1-6.26.8Zm3.73-3h3.17c3.64,0,6.38-.82,8.24-2.48a10.19,10.19,0,0,0,0-14c-1.86-1.64-4.6-2.46-8.24-2.46h-3.17Zm1-.89V107h2.2c3.17,0,5.62.71,7.38,2.14s2.63,3.57,2.63,6.41-.88,5-2.63,6.42-4.21,2.17-7.38,2.17Zm3.25-3.22a6.42,6.42,0,0,0,4.33-1.32,6.11,6.11,0,0,0,0-8.09,6.47,6.47,0,0,0-4.33-1.3Z"/><path class="cls-4" d="M249,103.09h8.44V128H249Zm4.7,21.92V106.08h-1V125Z"/><path class="cls-4" d="M260.08,103.09h6.53l6.88,9.6v-9.6h7.8V128h-6.57l-6.84-9.56V128h-7.8ZM264.52,125V107.76L276.85,125h1V106.08h-1v17.25l-12.33-17.25h-1V125Z"/><path class="cls-4" d="M283.9,103.09h14.68v6.54h-6.72v2.76h6.61v6.2h-6.61v2.87h7V128H283.9ZM296.08,125v-.89h-7.47v-8.18h7.09V115h-7.09V107h7.47v-.9h-8.44V125Z"/><path class="cls-4" d="M301.08,103.09h8.59a14.53,14.53,0,0,1,4.42.64,10.17,10.17,0,0,1,3.53,1.86,8.6,8.6,0,0,1,2.34,3,9.78,9.78,0,0,1,.84,4.16,8.56,8.56,0,0,1-.53,3.18,9.83,9.83,0,0,1-1.15,2.16,7.89,7.89,0,0,1-1.68,1.64L322.1,128h-9.33L309,121.69V128h-7.95Zm7.77,16.25a13.42,13.42,0,0,0,2.84-.3l3.54,6h1.16l-3.73-6.27a7,7,0,0,0,3.21-2.19,5.89,5.89,0,0,0,1.19-3.82,5.9,5.9,0,0,0-2.37-5,7.83,7.83,0,0,0-2.59-1.27,11.61,11.61,0,0,0-3.25-.43h-4V125h1v-5.67Zm-3.07-.9V107h3.07a8.45,8.45,0,0,1,5.32,1.49,5.09,5.09,0,0,1,1.92,4.26,5,5,0,0,1-1.92,4.24,8.58,8.58,0,0,1-5.32,1.47Zm3.25-3.1h.41a4.39,4.39,0,0,0,2.41-.63,2.79,2.79,0,0,0,0-4.26,4.39,4.39,0,0,0-2.41-.64H309Z"/><path class="cls-4" d="M237.26,54.27a4.58,4.58,0,0,1-.83,2.33,3.94,3.94,0,0,1-1.53,1.69q-.84.47-.84-.09a3.38,3.38,0,0,1,.5-.55c1-.94,1.51-1.72,1.51-2.33,0-1.3-1.3-2-3.89-2a22.55,22.55,0,0,0-9.55,2.6c-1.95,1.07-2.92,2-2.92,2.79s.59,1.25,1.78,1.83c.64.3,1.91.81,3.82,1.53s3.44,1.34,4.61,1.87a12.67,12.67,0,0,1,3.34,2.27,4.34,4.34,0,0,1,1.57,3.24c0,1.19-.7,2.48-2.1,3.88a25.52,25.52,0,0,1-8.31,5.1,24.67,24.67,0,0,1-8.78,2c-4.81,0-7.22-1.35-7.22-4.07s1.48-5,4.44-6.89A13.28,13.28,0,0,1,220.53,67c.64,0,.93.11.87.32s-.52.33-1.37.34a9.63,9.63,0,0,0-3.29.87A13,13,0,0,0,213,71q-2.28,2.06-2.28,4.11a2.91,2.91,0,0,0,1.23,2.28c.82.67,2.39,1,4.71,1a22.11,22.11,0,0,0,6.85-1.1q7.32-2.42,9.14-5.3a3.3,3.3,0,0,0,.73-1.78c0-1.4-.85-2.5-2.56-3.29a86.78,86.78,0,0,0-8.31-3.15A11.67,11.67,0,0,1,219,62a3.31,3.31,0,0,1-1.44-2.69,4.27,4.27,0,0,1,1.72-3.11,12.87,12.87,0,0,1,4.13-2.44,25.88,25.88,0,0,1,8.82-2Q237.26,51.76,237.26,54.27Z"/><path class="cls-4" d="M239,78.9a3.45,3.45,0,0,1-1.58-.43,4.15,4.15,0,0,1-1.44-1.24,2.77,2.77,0,0,1-.59-1.71,3.77,3.77,0,0,1,.41-1.74,12,12,0,0,1,2.94-3.72A26.76,26.76,0,0,1,242.92,67a14.22,14.22,0,0,1,3.47-1.6,10,10,0,0,1,2.49-.32,3.5,3.5,0,0,1,2.08.61,1.68,1.68,0,0,1,.87,1.31c0,.15,0,.24,0,.27s-.11,0-.23,0a2.51,2.51,0,0,0-2.26-.86,8.61,8.61,0,0,0-3.89,1.12,19.73,19.73,0,0,0-4.09,2.81,18.16,18.16,0,0,0-2.81,3.4,6.24,6.24,0,0,0-1.21,2.76c0,1.13.32,1.7,1,1.7a5.85,5.85,0,0,0,2.93-1.56,58.55,58.55,0,0,0,4.43-4q4.2-4.51,4.52-4.52a3.48,3.48,0,0,1,1.33.32c.51.21.68.47.5.77a14.6,14.6,0,0,0-2.74,6.63,9.68,9.68,0,0,0,0,1,1.48,1.48,0,0,0,.37,1c.45.49,1.08.52,1.87.09a18.81,18.81,0,0,0,3.31-2.56,22.85,22.85,0,0,0,3.41-3.74.31.31,0,0,1,.41-.12c.15.08.23.15.23.21,0,.46-.73,1.45-2.17,3a26.37,26.37,0,0,1-3.32,3.13,6.78,6.78,0,0,1-4,1.6A2.29,2.29,0,0,1,247,77.71a5.08,5.08,0,0,1-.14-1.23,12.19,12.19,0,0,1,.87-4.34A17,17,0,0,0,246,74a27.26,27.26,0,0,1-3.5,3.33A6,6,0,0,1,239,78.9Z"/><path class="cls-4" d="M270.29,65.42c.7,0,1,.38,1,1.12a7.23,7.23,0,0,1-1,3.09,34.79,34.79,0,0,0-1.55,3.19,9.51,9.51,0,0,0-.87,3.36,2.6,2.6,0,0,0,.37,1.67c.45.49,1.08.51,1.87.07a20.43,20.43,0,0,0,3.31-2.56,22,22,0,0,0,3.41-3.72.33.33,0,0,1,.43-.12c.17.08.25.16.25.23a.45.45,0,0,1-.09.25A18,18,0,0,1,275,75.16a23.71,23.71,0,0,1-3.42,3.08,5.59,5.59,0,0,1-3.25,1.16,3.1,3.1,0,0,1-2.19-.7,2.29,2.29,0,0,1-.64-1.67,10.22,10.22,0,0,1,.18-1.94,11.32,11.32,0,0,1,.69-2.17,28.3,28.3,0,0,1,1.44-3.07,4.17,4.17,0,0,0,.61-1.43.32.32,0,0,0-.36-.35c-.49,0-1.42.6-2.79,1.78a44.17,44.17,0,0,0-4.18,5,38,38,0,0,1-3.13,3.91,7.43,7.43,0,0,1-2.06.82c-.27,0-.41,0-.41-.14a1.29,1.29,0,0,1,.09-.39l.89-2.49q.81-2.23,1.74-4.91c.62-1.78,1-2.86,1.14-3.22a5.8,5.8,0,0,0,.28-.94,3.19,3.19,0,0,1,.16-.66,2.29,2.29,0,0,1,.34-.62.83.83,0,0,1,.66-.36,4.19,4.19,0,0,1,1.05.09c.43.07.64.27.64.57a4.73,4.73,0,0,1-.5,1.39q-.51,1.08-2.88,7.38c1.1-1.34,2.48-2.88,4.16-4.64a42.43,42.43,0,0,1,4.25-4A5.36,5.36,0,0,1,270.29,65.42Z"/><path class="cls-4" d="M278.26,70.06A26.76,26.76,0,0,1,282.49,67a14.22,14.22,0,0,1,3.47-1.6,10.07,10.07,0,0,1,2.52-.32,3.81,3.81,0,0,1,2.33.82q6.26-14.53,12-14.53a2.8,2.8,0,0,1,2.6,1.1,1.87,1.87,0,0,1,.32,1,6.32,6.32,0,0,1-1,2.9,18.92,18.92,0,0,1-3,3.86,67.83,67.83,0,0,1-5.89,5.18q-3.84,3.09-4.25,3.45a45.37,45.37,0,0,0-2.29,6.54,21.16,21.16,0,0,0-.82,4.7,4.73,4.73,0,0,0,.55,2.47,1.16,1.16,0,0,0,.82.71,1.19,1.19,0,0,0,.94-.14,4,4,0,0,0,.59-.43,2.73,2.73,0,0,1,.5-.34c.2-.11.35-.13.44-.07s.07.23,0,.5-.47.56-.68.78a3,3,0,0,1-1.72.5,11.4,11.4,0,0,1-1.3,0c-1.46-.24-2.19-1.31-2.19-3.19a16.86,16.86,0,0,1,.73-5.08q1-3.2,1.83-5.3-7.32,8.5-10.37,8.5a3.45,3.45,0,0,1-1.58-.43,4.15,4.15,0,0,1-1.44-1.24,2.77,2.77,0,0,1-.59-1.71,3.77,3.77,0,0,1,.41-1.74A12,12,0,0,1,278.26,70.06Zm12.18-3.45a4.74,4.74,0,0,0-1.92-.27A8.24,8.24,0,0,0,285,67.46a19.73,19.73,0,0,0-4.09,2.81,18.16,18.16,0,0,0-2.81,3.4,6.24,6.24,0,0,0-1.21,2.76c0,1.13.32,1.7,1,1.7a5.84,5.84,0,0,0,2.92-1.56,91.69,91.69,0,0,0,9.05-8.41ZM303.83,55.1a4.06,4.06,0,0,0,.59-1.85c0-.51-.22-.76-.66-.76a3.37,3.37,0,0,0-1.76.82q-5,3.84-9.09,12.84A39.72,39.72,0,0,0,299.12,61,26,26,0,0,0,303.83,55.1Z"/><path class="cls-4" d="M292.18,95.81a4,4,0,0,1-.92-.14c-1.55-.4-2.33-1.21-2.33-2.44s.8-2.78,2.4-4.64,5-4.49,10.12-7.91a110.67,110.67,0,0,0,5.44-12.29c-.36.43-1.08,1.35-2.15,2.77s-2,2.62-2.83,3.61a18.23,18.23,0,0,1-3,2.81,5.44,5.44,0,0,1-3.2,1.32,3.46,3.46,0,0,1-2.26-.66,2.23,2.23,0,0,1-.89-1.39,10.44,10.44,0,0,1-.09-1.24,7.07,7.07,0,0,1,.91-3.38,15.15,15.15,0,0,1,3.7-4.8,2.42,2.42,0,0,1,1.53-.82,2,2,0,0,1,1.22.41c.39.43.51.79.36,1.1a15.43,15.43,0,0,0-4,3.88,9.25,9.25,0,0,0-1.64,3.93,5.88,5.88,0,0,0-.05.8.94.94,0,0,0,.39.78,1.31,1.31,0,0,0,.8.3,4.43,4.43,0,0,0,3-1.51q1.56-1.51,3-3.18t3.22-4l2.38-3.06a1.57,1.57,0,0,1,1.16-.73,3.27,3.27,0,0,1,1.51.41c.52.28.74.49.67.64s-.86,1.88-2.34,5.19-2.55,5.67-3.22,7.1a26.78,26.78,0,0,0,3.73-2.81,31.89,31.89,0,0,0,4.45-4.5q.47-.54.6-.09a.74.74,0,0,1,0,.3,1.09,1.09,0,0,1-.27.57,37.68,37.68,0,0,1-4.53,4.71,29.15,29.15,0,0,1-4.93,3.83q-3.88,8-5.21,10.06C296.66,94.12,294.4,95.81,292.18,95.81Zm8.41-13.39a75.05,75.05,0,0,0-7.84,6.49c-1.57,1.58-2.35,3-2.35,4.09s.39,1.71,1.18,1.71a3.6,3.6,0,0,0,2.11-.94A11.61,11.61,0,0,0,296,91.28a22.1,22.1,0,0,0,1.67-2.67c.38-.75.9-1.84,1.58-3.29S300.34,82.91,300.59,82.42Z"/><path class="cls-4" d="M320.92,52.72c0,.61-.64,1.72-1.92,3.34q-2.79,3.19-3.25,3.19-.18,0-.18-.27a6.19,6.19,0,0,1,1.33-1.76,8.32,8.32,0,0,0,1.82-3.13,1.5,1.5,0,0,0,0-1.32,2,2,0,0,1-.25-1.06,1.16,1.16,0,0,1,1-.45,1.17,1.17,0,0,1,1.05.5A1.75,1.75,0,0,1,320.92,52.72Z"/><path class="cls-4" d="M323.57,78.86c-.4.45-.48.82-.25,1.09a1,1,0,0,0,.77.41,3.09,3.09,0,0,0,.89-.13,9.63,9.63,0,0,0,3.82-2.36,5,5,0,0,0,1.85-3.58c0-.67-.75-1.4-2.24-2.2-.7-.36-1.1-.57-1.19-.64a3.79,3.79,0,0,1-1.55-1.64c-.43.73-1.11,1.78-2.06,3.15-.21.25-.41.3-.59.16s-.2-.33,0-.57a17.43,17.43,0,0,0,2.47-4.29q.31-2.52,3.66-4.53a12,12,0,0,1,6.07-2,3.76,3.76,0,0,1,2.45.62,1.69,1.69,0,0,1,.71,1.21,3.4,3.4,0,0,1-1.74,2.83.3.3,0,0,1-.46-.09q-.09-.27.39-.75a2.34,2.34,0,0,0,.62-1.31.8.8,0,0,0-.73-1h-.28a10.57,10.57,0,0,0-4.45,1.32A11.11,11.11,0,0,0,327.5,68a2.58,2.58,0,0,0-.6,1.58c0,.53.37,1,1.1,1.44.3.18.82.47,1.55.87s1.25.68,1.56.86a7.87,7.87,0,0,1,1.09.87,1.85,1.85,0,0,1,.69,1.1,3.73,3.73,0,0,1-1.28,3,11.83,11.83,0,0,1-6.4,3.34,8.44,8.44,0,0,1-1.94.23,1.38,1.38,0,0,1-1.35-.73,1,1,0,0,1-.13-.57,2.54,2.54,0,0,1,.73-1.26,6.85,6.85,0,0,1,2.19-1.33.21.21,0,0,1,.23,0,.21.21,0,0,1,0,.23c0,.09-.19.2-.48.32A2.43,2.43,0,0,0,323.57,78.86Z"/><path class="cls-5" d="M253.12,161.77l-2.55.46c-.09,0-.14,0-.14-.15a.7.7,0,0,1,.44-.6l.21-.09,1.3-.17.76-.05a34.47,34.47,0,0,1,1.39-4q1.11-2.84,2.18-5.19a19.39,19.39,0,0,1-2.78,2.2c-.22.14-.32.15-.32,0s.09-.24.27-.39a22,22,0,0,0,3.76-3.9.45.45,0,0,1,.32-.16,1.55,1.55,0,0,1,.78.18c.21.12.31.22.31.31a.08.08,0,0,1,0,0q-4.12,7.74-5,10.88c.31,0,.73,0,1.27,0a9.17,9.17,0,0,1,1.51.11c.2,0,.29.12.25.24s-.19.18-.46.18c-1.63,0-2.53,0-2.68,0v0a.71.71,0,0,1-.4.19A.38.38,0,0,1,253.12,161.77Z"/><path class="cls-5" d="M261.23,154.64a1.78,1.78,0,0,0,.58,1.39,2.11,2.11,0,0,0,1.48.53h.07a3.24,3.24,0,0,0,1.85-.86.36.36,0,0,1,.26-.07c.2,0,.18.16-.05.41a2.89,2.89,0,0,1-1.05.68,3.72,3.72,0,0,1-1.4.28h-.07a3.19,3.19,0,0,1-2-.63,2,2,0,0,1-.8-1.68,4.74,4.74,0,0,1,1.87-3.65,5.37,5.37,0,0,1,3.5-1.34,4,4,0,0,1,2.39.66,2.73,2.73,0,0,1,1.11,1.7,6.38,6.38,0,0,1,.09,1.08,7.94,7.94,0,0,1-1,3.65,10.94,10.94,0,0,1-2.84,3.41,7.8,7.8,0,0,1-3.41,1.81q-.78.09-1.11.09a1.93,1.93,0,0,1-.74-.18,3.08,3.08,0,0,1-.76-.46,2,2,0,0,1-.58-1.59,3.75,3.75,0,0,1,.07-.73c0-.16.12-.23.27-.2s.23.08.21.16a3.69,3.69,0,0,0,0,.58,2.59,2.59,0,0,0,.11.68,1.63,1.63,0,0,0,1.14,1,1.74,1.74,0,0,0,.51.11l.41,0,.51,0a5.52,5.52,0,0,0,2.62-1.64,10.69,10.69,0,0,0,2.92-5.2,6.49,6.49,0,0,0,.21-1.39c0-.34,0-.56,0-.65a2.3,2.3,0,0,0-.67-1.63,2.82,2.82,0,0,0-2-.64,3,3,0,0,0-2.36,1.19,5.15,5.15,0,0,0-1.2,2.67A3.08,3.08,0,0,0,261.23,154.64Z"/><path class="cls-5" d="M279.87,154.34a2,2,0,0,1,1.24,2,4.45,4.45,0,0,1-.78,2.57,6.62,6.62,0,0,1-2,1.9,10.78,10.78,0,0,1-2.6,1.18,9.69,9.69,0,0,1-2.74.43c-2.62,0-3.94-.83-3.94-2.5a2,2,0,0,1,.2-.86c.13-.28.3-.42.52-.42a.63.63,0,0,1,.21.05c.26.09.35.24.28.46a2.26,2.26,0,0,0-.12.77,1.7,1.7,0,0,0,.94,1.51,3.74,3.74,0,0,0,1.8.48h.16a6.76,6.76,0,0,0,3-.75,7.07,7.07,0,0,0,2.51-2,4.47,4.47,0,0,0,1-2.78,1.86,1.86,0,0,0-.44-1.28,2.88,2.88,0,0,0-2.27-.77,4.81,4.81,0,0,0-1.5.22,5.47,5.47,0,0,0-1.54.83,6,6,0,0,1-1,.65c-.22,0-.32,0-.31-.25a1.81,1.81,0,0,1,.26-.59,32.32,32.32,0,0,1,2.66-3.91,1.5,1.5,0,0,0-.1-.16.89.89,0,0,1-.1-.19l-.09-.19a.37.37,0,0,1,0-.18l0-.14c0-.11.16-.2.37-.24a18.06,18.06,0,0,1,3.47-.24,34.49,34.49,0,0,1,3.79.17c.21,0,.32.11.32.25s-.21.33-.63.33c-3.42,0-5.44.17-6,.5A6,6,0,0,0,275,153a10.91,10.91,0,0,0-.86,1.32,5,5,0,0,1,2.65-.55A7.43,7.43,0,0,1,279.87,154.34Z"/><path class="cls-5" d="M292.54,154.34a2,2,0,0,1,1.24,2,4.45,4.45,0,0,1-.78,2.57,6.5,6.5,0,0,1-2,1.9,10.78,10.78,0,0,1-2.6,1.18,9.64,9.64,0,0,1-2.74.43q-3.93,0-3.93-2.5a2,2,0,0,1,.19-.86c.13-.28.31-.42.52-.42a.58.58,0,0,1,.21.05c.26.09.36.24.28.46a2.26,2.26,0,0,0-.12.77,1.74,1.74,0,0,0,.94,1.51,3.8,3.8,0,0,0,1.8.48h.16a6.8,6.8,0,0,0,3-.75,7.12,7.12,0,0,0,2.5-2,4.42,4.42,0,0,0,1-2.78,1.91,1.91,0,0,0-.44-1.28,2.91,2.91,0,0,0-2.27-.77,4.88,4.88,0,0,0-1.51.22,5.61,5.61,0,0,0-1.54.83,5.57,5.57,0,0,1-1,.65c-.22,0-.32,0-.3-.25a1.56,1.56,0,0,1,.25-.59,32.16,32.16,0,0,1,2.67-3.91l-.11-.16a.89.89,0,0,1-.1-.19s0-.11-.08-.19a.3.3,0,0,1,0-.18.74.74,0,0,1,0-.14c0-.11.15-.2.37-.24a17.94,17.94,0,0,1,3.46-.24,34.49,34.49,0,0,1,3.79.17c.21,0,.32.11.32.25s-.21.33-.62.33q-5.15,0-6.05.5a6,6,0,0,0-1.32,1.86,10.91,10.91,0,0,0-.86,1.32,5,5,0,0,1,2.65-.55A7.43,7.43,0,0,1,292.54,154.34Z"/><line class="cls-6" x1="202.33" y1="153.26" x2="245.69" y2="154.85"/><line class="cls-6" x1="305.36" y1="156.7" x2="348.62" y2="154.98"/></svg>
